<svg width="347" height="257" viewBox="0 0 347 257" fill="none" xmlns="http://www.w3.org/2000/svg">
    <path opacity=".21" d="M173.5 256.074c95.821 0 173.5-6.931 173.5-15.482 0-8.55-77.679-15.482-173.5-15.482S0 232.042 0 240.592c0 8.551 77.679 15.482 173.5 15.482z" fill="#FFBC6D"/>
    <path d="M247.048 226.645h9.455V72.838h-9.455v153.807z" fill="#7F3C00"/>
    <path d="M259.174 69.281c3.298 6.588 6.647 13.255 11.484 18.814 1.747 2.011 3.875 3.961 6.519 4.307.182.023.387.03.517-.096.13-.127.126-.335.099-.513-.123-.862-.561-1.642-1.006-2.391-4.361-7.338-10.286-13.782-13.611-21.643l-4.002 1.522z" fill="#8BADF3"/>
    <path d="M238.479 12.621c3.356.527 6.609 1.55 9.924 2.292 2.155.486 4.443.845 6.547.171-1.768.961-3.896.927-5.901.756a54.284 54.284 0 0 1-8.151-1.33 27.298 27.298 0 0 0 12.725 3.225 27.62 27.62 0 0 1-11.668-.8c-2.757-.8-5.384-2.032-8.182-2.665s-6.472.995-8.863 2.576c1.847-1.214 1.953-3.568 5.993-4.225a24.151 24.151 0 0 1 7.576 0z" fill="#FFB500"/>
    <path d="M233.93 27.317c1.074-.5 2.018-1.253 2.825-2.114 1.461-1.56 2.497-3.527 2.873-5.63a9.855 9.855 0 0 0 .141-2.088 7.015 7.015 0 0 0-1.854-2.938c-1.43-1.365-3.363-2.087-5.34-2.097-2.658-.013-7.125.9-8.09 5.83-.879 4.497.818 6.957 2.059 9.495 1.013 2.25 5.391.472 7.386-.458z" fill="#FFB500"/>
    <path d="M295.249 81.47c-35.271-16.016-23.565-28.334-44.24-47.189-1.946-1.775-9.742-10.296-11.24-16.796a9.921 9.921 0 0 1-.14 2.087c-.373 2.104-1.413 4.07-2.874 5.63-.807.866-1.751 1.615-2.825 2.114-1.994.93-5.326 1.249-7.382.459.301 1.2.12 2.784-.192 3.547-7.484 18.496 19.44 42.728 36.345 38.982 0 0 12.923 14.87 22.313 18.52 1.888.882 2.638-.859 1.108-2.1-5.883-5.583-11.767-11.17-17.654-16.752 3.291 3.291 21.968 15.137 26.822 12.455a.536.536 0 0 0-.041-.958z" fill="#8BADF3"/>
    <path opacity=".35" d="M234.32 48.829c1.204 1.273 3.051 2.011 4.754 1.604 1.704-.407 3.086-2.12 2.843-3.855 1.82 1.368 4.108 2.323 6.352 1.936 2.244-.386 4.266-2.463 4.009-4.724 2.066 1.092 4.615 2.176 6.616.972a3.49 3.49 0 0 0 .766-.626c-2.111-3.103-4.823-6.366-8.647-9.852-.404-.37-1.064-1.033-1.865-1.905-.219 1.297-.691 2.49-1.7 3.294-1.686 1.341-4.262.951-6.01-.311-.28-.202-.646-.431-.937-.246-.158.102-.229.294-.301.468-.633 1.516-2.354 2.436-3.992 2.316-1.639-.12-3.133-1.17-3.989-2.572-1.166 1.87-3.42 3.4-5.507 2.685-.626-.216-1.163-.616-1.604-1.112-.281 4.621 1.163 9.38 3.721 13.816 2.056.548 4.461-.054 5.491-1.888zM254.874 65.847c1.143.89 2.898.869 4.02-.041 1.122-.913 1.498-2.627.862-3.924 2.415 1.69 5.514 2.686 8.346 1.872a6.173 6.173 0 0 0 1.909-.941c-1.946-2.86-3.359-5.74-4.813-8.716a4.191 4.191 0 0 1-1.006.76c-1.724.926-4.043.578-5.415-.818.247 2.141-1.953 3.957-4.108 4.033-2.155.075-4.149-1.098-5.863-2.405.633 1.621-.226 3.667-1.823 4.358-1.724.742-3.735-.051-5.244-1.166.048 1.303 0 2.818-1.043 3.602a2.2 2.2 0 0 1-1.098.417c4.289 3.349 9.082 5.866 13.734 7.053 1.255-.981 2.025-2.582 1.542-4.084z" fill="#8BADF3"/>
    <path d="M268.75 70.244c-.096-.09-.189-.179-.286-.268.086.082.183.172.286.268z" fill="#8BADF3"/>
    <path d="M270.931 60.757c.239.424.39 1.078-.041 1.307-.209.113-.465.051-.691-.017a10.505 10.505 0 0 1-4.625-2.935c.701 1.176 1.43 2.442 1.372 3.814-.01.205-.048.43-.205.56-.199.162-.486.103-.732.032a18.74 18.74 0 0 1-8.963-5.76 9.465 9.465 0 0 1 2.706 3.341c.144.298.274.612.26.94-.027.617-.571 1.112-1.166 1.277-.595.164-1.228.061-1.83-.069-7.601-1.618-13.851-7.265-17.955-13.867-3.366-5.418-6.154-12.954-3.77-18.191 1.026-2.258 6.92-6.78 14.596.462.003 0 10.211 10.012 21.044 29.106z" fill="#DEE9FF"/>
    <path d="M225.429 26.793c.496.12 1.085.106 1.444-.26.126-.13.212-.29.291-.455.178-.373.325-.78.28-1.194-.034-.321-.185-.622-.38-.882-.673-.91-1.96-1.348-3.02-.944-.705.27-1.529 1.245-1.067 2.025.489.824 1.539 1.491 2.452 1.71z" fill="#FF6700"/>
    <path d="M227.376 25.527c-.298.63-1.389.021-2.083.035-.455.007-.931.02-1.327.24-.582.324-.856 1.012-.989 1.665-3.39-5.894.062-7.802 1.344-7.912-.003 0 5.299 1.221 3.055 5.973z" fill="#FF6700"/>
    <path d="M222.974 27.467c.003-1.594 1.412-2.364 2.873-2.08.927.127 1.895-.202 2.47-.968.195-.246.376-.527.383-.855.041.328-.113.653-.291.924a2.753 2.753 0 0 1-2.603 1.276c-1.355-.216-2.473.307-2.832 1.703z" fill="#7F3C00"/>
    <path d="M245.18 47.516c.496 1.313 1.163 2.644 2.299 3.502.561.4 2.165 1.365 2.49.346.14-.424-.051-1.06-.126-1.522l.417.38c.506.454 1.077.936 1.772.984.585.052 1.348-.485 1.211-1.118l-.11-.465c.879.643 3.421 2.972 4.098 1.156.058-.202.021-.441-.143-.595.389.304.208.916-.127 1.2-1.071.794-2.743-.622-3.657-1.204l.26-.167c.188.896-.728 1.594-1.553 1.556-.8-.041-1.464-.547-2.011-1.067l.318-.171c.469 2.504-1.69 2.032-3.017.913-1.139-.944-1.758-2.336-2.121-3.728zM244.561 41.84c.479 1.355 1.098 2.867 2.477 3.497 1.33.591 1.074-.223 1.45-1.177l.12-.26.191.219c.359.4.801.89 1.358.872.507-.017.903-.564.961-1.098l.048-.465.271.376c.499.664 1.399 1.327 2.257 1.177.418-.093.626-.585.561-1.026-.061-.452-.356-.852-.633-1.232.319.342.654.715.767 1.208.123.496-.093 1.118-.63 1.272-1.026.223-1.994-.427-2.606-1.187l.318-.089c-.055.688-.544 1.4-1.293 1.447-.725.034-1.245-.52-1.666-1.005l.315-.041c-.185.369-.161.93-.472 1.3-.384.444-1.023.212-1.458-.004-1.412-.732-2.011-2.326-2.336-3.783zM251.659 55.157c.811 1 1.714 2.145 3.017 2.44 1.567.386 2.118-.99 2.032-2.334l-.014-.468.325.338c.767.797 1.659 1.471 2.621 2.008.417.24.978.373 1.204-.147.212-.444-.028-.964-.284-1.45l-.24-.455.448.246c.787.428 1.293 1.204 2.125 1.516.581.266 1.344.089 1.573-.551a.735.735 0 0 0-.027-.623.76.76 0 0 1 .085.643c-.201.719-1.053.968-1.696.719-.855-.274-1.434-1.047-2.203-1.43l.208-.212c.141.243.284.503.37.797.215.602-.103 1.491-.835 1.519-.345.017-.636-.113-.899-.243a10.135 10.135 0 0 1-2.71-2.087l.312-.13c.089 1.53-.654 3.103-2.45 2.593-1.375-.366-2.223-1.577-2.962-2.689z" fill="#78899D"/>
    <path d="M230.67 20.995c-.702 1.08-.558 2.71.482 3.472.366.27.807.417 1.252.51 1.255.26 2.661.051 3.619-.8.958-.852 1.303-2.416.571-3.47-1.382-1.983-4.665-1.648-5.924.288z" fill="#FF6C90"/>
    <path d="M230.102 19.278a1.337 1.337 0 0 1-1.559 1.07 1.335 1.335 0 0 1-1.078-1.552 1.34 1.34 0 0 1 2.637.482z" fill="#441000"/>
    <path d="M229.938 19.706c.075-.13.137-.27.164-.428a1.335 1.335 0 0 0-1.077-1.553 1.338 1.338 0 0 0-1.56 1.07 1.287 1.287 0 0 0-.01.367c.995-.353 1.86-.045 2.483.544z" fill="#441000" opacity=".5"/>
    <path d="M229.278 18.84c.024.072.048.147.092.209.079.113.246.178.366.106.12-.069.147-.23.13-.363-.027-.24-.256-.728-.564-.701-.397.041-.082.575-.024.75z" fill="#fff"/>
    <path d="M215.01 72.822c-.253-2.066 1.304-4.115 3.377-4.386.762-.133 69.169.767 69.925.722-5.145-.106-5.206 7.984-.075 7.984l-69.317-.763c-1.96.007-3.725-1.614-3.91-3.557z" fill="#7F3C00"/>
    <path d="M285.832 70.003a3.966 3.966 0 0 0-1.413 2.203c-.52 2.138.783 4.3 2.914 4.82a3.938 3.938 0 0 0 3.377-.729 3.97 3.97 0 0 0 1.412-2.203c.52-2.138-.783-4.3-2.914-4.82a3.94 3.94 0 0 0-3.376.729z" fill="#441000"/>
    <path d="M258.022 68.82h-4.368l-1.492 7.925 8.001.106-2.141-8.031z" fill="#7F3C00"/>
    <mask id="p3hvamshwa" style="mask-type:luminance" maskUnits="userSpaceOnUse" x="235" y="62" width="19" height="16">
        <path d="M243.531 62.734c-.989 5.689 10.341 6.034 10.341 6.034l-.229 8.86h-16.197l-2.289-6.311 8.374-8.583z" fill="#fff"/>
    </mask>
    <g mask="url(#p3hvamshwa)" fill="#FF6C90">
        <path d="M247.66 67.828c-.54-.291-1.122-.538-1.765-.606-.869-.096-1.703.27-2.422.842-.93.745-1.665 1.847-2.025 2.77-.465 1.198-.489 2.49-.068 3.599.27.711.759 1.382 1.529 1.628a2.36 2.36 0 0 0 1.567-.079c.171-.068.349-.17.431-.328.167-.332-.185-.616-.479-.8-.65-.414-1.208-.989-1.379-1.728-.085-.362-.075-.749-.024-1.129.123-.937.507-1.919 1.28-2.606.711-.633 1.789-.934 2.593-.626 0 0 1.816.667 2.651 1.28-.117-.99-.979-1.728-1.889-2.217z"/>
        <path d="M246.176 67.17c-.54-.29-1.122-.536-1.765-.605-.869-.096-1.704.27-2.422.842-.93.745-1.666 1.847-2.025 2.77-.465 1.198-.489 2.49-.068 3.599.27.712.759 1.382 1.529 1.628a2.359 2.359 0 0 0 1.566-.078c.171-.069.349-.171.431-.329.168-.332-.184-.615-.479-.8-.649-.414-1.207-.989-1.378-1.728-.086-.362-.075-.749-.024-1.128.123-.938.506-1.92 1.279-2.607.712-.633 1.789-.934 2.593-.626 0 0 2.042.267 2.874.876-.113-.989-1.201-1.324-2.111-1.813z"/>
        <path d="M244.565 67.212c-.541-.29-1.122-.537-1.765-.606-.869-.095-1.704.27-2.422.842-.931.746-1.666 1.847-2.025 2.77-.466 1.198-.489 2.49-.069 3.6.271.71.76 1.381 1.529 1.627a2.361 2.361 0 0 0 1.567-.078c.171-.069.349-.171.431-.329.168-.331-.185-.615-.479-.8-.65-.414-1.207-.989-1.378-1.728-.086-.362-.076-.749-.024-1.128.123-.938.506-1.92 1.279-2.607.711-.633 1.789-.934 2.593-.626 0 0 2.446-.373 3.277.24-.116-.989-1.608-.688-2.514-1.177z"/>
        <path d="M246.175 67.17c-1.043-.417-2.206-.639-3.208-.05-1.844 1.115-3.168 3.297-3.062 5.48.076 1.087.448 2.288 1.512 2.804-1.241-.229-1.915-1.587-2.083-2.743-.605-3.455 3.441-8.234 6.841-5.49z"/>
        <path d="M249.545 70.044c-.403-1.515-2.189-2.288-3.574-2.524-1.506-.144-2.758 1.08-3.551 2.257-.859 1.239-1.249 2.799-.869 4.27.181.718.558 1.416 1.208 1.761.482.27 1.115.294 1.652.137.184-.051.379-.123.492-.29-.441.673-1.587.758-2.298.481-1.639-.728-2.049-2.832-1.772-4.447.461-2.305 2.613-5.113 5.213-4.74 1.505.338 3.386 1.433 3.499 3.095z"/>
    </g>
    <mask id="bqb9ruhjeb" style="mask-type:luminance" maskUnits="userSpaceOnUse" x="235" y="62" width="19" height="16">
        <path d="M243.531 62.734c-.989 5.689 10.341 6.034 10.341 6.034l-.229 8.86h-16.197l-2.289-6.311 8.374-8.583z" fill="#fff"/>
    </mask>
    <g mask="url(#bqb9ruhjeb)" fill="#FF6C90">
        <path d="M254.898 67.923c-.567-.308-1.183-.571-1.86-.646-.917-.103-1.8.277-2.563.879-.985.783-1.765 1.943-2.148 2.918-.496 1.262-.527 2.627-.089 3.8.281.753.797 1.46 1.608 1.724.51.164 1.115.137 1.656-.079.181-.072.369-.178.455-.345.177-.349-.195-.65-.503-.848-.684-.438-1.269-1.05-1.447-1.827-.089-.383-.075-.79-.021-1.194.134-.989.544-2.022 1.362-2.747.752-.667 1.891-.981 2.74-.65 0 0 1.915.712 2.791 1.358-.116-1.04-1.026-1.823-1.981-2.343z"/>
        <path d="M253.336 67.222c-.568-.308-1.184-.571-1.861-.646-.917-.103-1.799.277-2.562.879-.985.783-1.765 1.943-2.148 2.918-.496 1.262-.527 2.627-.089 3.8.28.752.797 1.46 1.608 1.724.509.164 1.115.137 1.655-.079.181-.072.37-.178.455-.345.178-.35-.195-.65-.503-.849-.684-.438-1.269-1.05-1.447-1.826-.089-.383-.075-.79-.02-1.194.133-.989.544-2.022 1.361-2.747.753-.667 1.892-.982 2.74-.65 0 0 2.152.288 3.031.938-.12-1.04-1.266-1.403-2.22-1.923z"/>
        <path d="M251.632 67.26c-.568-.308-1.183-.572-1.861-.647-.916-.103-1.799.277-2.562.88-.985.783-1.765 1.942-2.148 2.917-.496 1.262-.527 2.627-.089 3.8.281.753.797 1.461 1.608 1.725.51.164 1.115.136 1.656-.08.181-.071.369-.177.454-.345.178-.349-.194-.65-.502-.848-.684-.438-1.269-1.05-1.447-1.827-.089-.383-.076-.79-.021-1.194.134-.988.544-2.021 1.362-2.746.752-.667 1.891-.982 2.74-.65 0 0 2.582-.383 3.458.263-.116-1.036-1.693-.725-2.648-1.248z"/>
        <path d="M253.335 67.222c-1.098-.445-2.326-.684-3.387-.065-1.949 1.17-3.355 3.469-3.249 5.774.075 1.15.465 2.415 1.587 2.966-1.31-.246-2.015-1.683-2.189-2.904-.63-3.65 3.656-8.679 7.238-5.771z"/>
        <path d="M254.899 67.923c-1.273-.571-2.71-.701-3.845.192-2.09 1.553-3.469 4.525-2.357 7.036.386.927 1.313 1.54 2.326 1.396.325-.048.718-.093.937-.373-.386.63-1.33.742-2.018.646-1.601-.314-2.316-2.107-2.377-3.574-.168-3.54 3.868-8.076 7.334-5.323z"/>
    </g>
    <path d="M94.308 42.545c-1.348-10.672-4.327-31.364 2.046-41.277a2.764 2.764 0 0 1 4.159-.571c5.524 4.864 10.939 19.224 14.158 24.3L94.308 42.545z" fill="#D58D32"/>
    <path d="M97.492 39.754c-1.108-8.77-4.232-27.591 1.532-35.182a1.332 1.332 0 0 1 1.772-.321c4.786 3.085 10.105 17.27 12.841 21.588L97.492 39.754z" fill="#F69BAD"/>
    <path d="M103.677 23.78c-2.063-.986-3.695-2.843-4.389-5.022a46.474 46.474 0 0 1 4.389 5.021zM104.45 23.02a12.174 12.174 0 0 1-3.564-5.924 20.017 20.017 0 0 1 3.564 5.924zM105.566 22.503a11.446 11.446 0 0 1-1.823-6.899 27.872 27.872 0 0 1 1.823 6.9z" fill="#F69BAD"/>
    <path d="M140.549 42.545c1.348-10.672 4.327-31.364-2.045-41.277a2.764 2.764 0 0 0-4.16-.571c-5.524 4.864-10.939 19.224-14.158 24.3l20.363 17.548z" fill="#FFC77D"/>
    <path d="M137.368 39.754c1.108-8.77 4.231-27.591-1.533-35.182a1.333 1.333 0 0 0-1.772-.321c-4.785 3.085-10.104 17.27-12.841 21.588l16.146 13.915z" fill="#F69BAD"/>
    <path d="M132.298 23.355a47.327 47.327 0 0 1 2.784-6.061 8.522 8.522 0 0 1-2.784 6.061zM131.631 22.705c.12-2.36.609-4.563 1.512-6.749a12.221 12.221 0 0 1-1.512 6.75zM130.235 22.192a27.94 27.94 0 0 1 .548-7.118 11.446 11.446 0 0 1-.548 7.118z" fill="#F69BAD"/>
    <path d="M77.687 217.54c-30.434 3.995-74.078-8.237-70.617-46.145 2.255 4.235 6 7.659 10.42 9.527-10.953-11.347-5.733-32.801 4.625-42.995a18.97 18.97 0 0 0-.842 11.333c4.792-10.556 14.37-18.821 25.515-22.019-1.252 3.007-2.504 6.014-3.76 9.02 6.989-5.945 16.707-8.534 25.727-6.858-15.092 9.157-30.341 35.951-21.109 51.618 9.034 14.346 32.593 31.846 51.995 25.316L77.687 217.54z" fill="#FFC77D"/>
    <path opacity=".3" d="M23.551 187.342c-2.965-4.638-4.69-9.954-7.337-14.78 1.396 2.928 4.07 5.216 7.18 6.14-3.15-5.648-3.571-12.452-2.822-18.876.745-6.379 2.62-12.612 5.439-18.382a39.232 39.232 0 0 0-4.735 7.813 18.974 18.974 0 0 1 .842-11.333c-10.358 10.193-15.578 31.648-4.625 42.994a21.279 21.279 0 0 1-10.42-9.526c-3.46 37.908 40.18 50.14 70.614 46.148l4.566-2.329c-15.42-.821-30.632-5.614-43.675-13.892-5.822-3.698-11.312-8.165-15.027-13.977z" fill="#D58D32"/>
    <path d="M118.862 234.202c-7.953-.219-15.91-.441-23.863-.663-1.193-.035-2.418-.072-3.52-.589-1.467-.687-2.541-2.131-3.454-3.598-3.435-5.497-5.474-11.945-7.078-18.424-5.972-24.116-6.413-49.651-3.855-74.523 2.559-24.871 11.425-49.234 17.162-73.424h24.611v171.221h-.003z" fill="#FFC77D"/>
    <path d="M118.862 234.202c7.953-.219 15.909-.441 23.862-.663 1.194-.035 2.419-.072 3.52-.589 1.468-.687 2.542-2.131 3.455-3.598 3.435-5.497 5.473-11.945 7.078-18.424 5.972-24.116 6.413-49.651 3.855-74.523-2.556-24.875-11.425-49.234-17.162-73.424h-24.612v171.221h.004z" fill="#FFC77D"/>
    <path d="M90.74 76.054s7.194 6.907 27.732 6.907 28.429-6.907 28.429-6.907l-1.689-6.075s-7.416 6.49-26.719 6.49-26.066-6.49-26.066-6.49l-1.686 6.075z" fill="#8BADF3"/>
    <path d="M84.09 174.368c-2.445-2.176-3.786-5.295-5.551-8.049-1.769-2.754-4.389-5.388-7.659-5.511-4.847-.184-8.032 4.981-9.485 9.609-5.785 18.4-.798 39.769 12.536 53.705a19.453 19.453 0 0 0-9.65 2.093c-1.799.917-3.598 2.343-3.865 4.344-.297 2.21 1.492 4.273 3.578 5.059 2.087.787 4.4.602 6.623.411l27.79-2.432c.57-.051 1.169-.11 1.645-.431.779-.527.985-1.574 1.084-2.508 1.549-14.363-5.09-28.203-11.552-41.126l-5.493-15.164zM153.923 174.368c2.445-2.176 3.786-5.295 5.551-8.049 1.769-2.754 4.389-5.387 7.659-5.511 4.847-.184 8.032 4.981 9.486 9.609 5.784 18.4.797 39.769-12.537 53.705a19.466 19.466 0 0 1 9.65 2.093c1.799.917 3.598 2.343 3.865 4.344.298 2.21-1.491 4.273-3.578 5.06-2.086.786-4.399.602-6.622.41l-27.79-2.432c-.571-.051-1.17-.11-1.645-.431-.78-.527-.985-1.574-1.085-2.507-1.549-14.364 5.09-28.204 11.552-41.127l5.494-15.164z" fill="#FFC77D"/>
    <path d="M91.835 96.705c8.685 5.671 15.283 14.486 18.475 24.341.201.661.393 1.324.574 1.988-.438-1.098-1.098-2.709-1.597-3.804-3.944-8.754-9.996-16.488-17.453-22.525z" fill="#D58D32"/>
    <path d="M81.97 113.189c-1.385 35.572 9.948 70.312 13.83 105.695.26 2.364.441 4.93-.818 6.948-1.621 2.589-5.48 4.159-5.172 7.2.312 3.072 4.44 3.763 7.522 3.616l11.815-.554c.715-.034 1.464-.075 2.077-.448 1.279-.773 1.413-2.542 1.399-4.037l-.917-103.66-29.736-14.76z" fill="#FFC77D"/>
    <path d="M81.97 113.189C80.934 149.168 92.263 183.86 96.2 219.36c.198 1.984.311 4.166-.582 6.048-1.272 3.147-7.645 5.408-4.655 9.242 2.497 2.172 6.147 1.57 9.236 1.492l7.939-.356c1.314-.085 2.733.055 3.431-.906.739-.992.712-2.378.708-3.606-.13-19.563-.356-51.919-.482-71.53l-.092-31.791.472 31.788c.205 19.659.578 51.929.783 71.53.003 1.365.041 2.856-.842 4.04-.937 1.241-2.603 1.104-3.944 1.187-2.829.112-9.184.502-11.934.543-3.404.086-8.261-1.717-6.438-5.972.924-1.847 2.805-2.976 4.098-4.433 2.836-3.031 1.443-7.392 1.142-11.148-4.084-34.111-14.599-67.661-13.07-102.299z" fill="#D58D32"/>
    <path d="M92.906 236.357c-.079-.167-1.84-4.135 2.21-8.244l.554.548c-3.66 3.711-2.124 7.228-2.056 7.375l-.708.321zM96.593 236.737c-.055-.291-1.248-7.105 2.914-8.713l.281.726c-3.56 1.378-2.439 7.782-2.429 7.847l-.766.14zM100.639 236.563c-.051-.284-1.248-6.965 2.915-8.542l.277.729c-3.564 1.347-2.439 7.607-2.425 7.669l-.767.144zM145.892 96.705c-7.457 6.041-13.512 13.775-17.452 22.525-.5 1.095-1.156 2.695-1.601 3.804.185-.664.376-1.327.575-1.988 3.194-9.855 9.793-18.673 18.478-24.341z" fill="#D58D32"/>
    <path d="M155.757 113.189c1.385 35.572-9.947 70.312-13.83 105.695-.26 2.364-.441 4.93.818 6.948 1.621 2.589 5.48 4.159 5.172 7.2-.311 3.072-4.44 3.763-7.522 3.616l-11.815-.554c-.715-.034-1.464-.075-2.077-.448-1.279-.773-1.412-2.542-1.399-4.037.305-34.552.613-69.107.917-103.66l29.736-14.76z" fill="#FFC77D"/>
    <path d="M155.757 113.189c1.526 34.641-8.986 68.188-13.074 102.299-.301 3.756-1.693 8.12 1.143 11.148.858.951 1.915 1.758 2.863 2.74.978.981 1.816 2.374 1.58 3.838-.455 3.089-4.204 3.78-6.783 3.827-2.713-.041-9.147-.434-11.935-.543-1.341-.086-3.01.054-3.944-1.187-.882-1.184-.845-2.675-.841-4.04l.085-7.946c.178-15.838.517-47.746.695-63.581l.472-31.788-.093 31.792c-.119 19.658-.355 51.933-.482 71.53-.003 1.228-.031 2.613.708 3.605.698.961 2.118.821 3.431.906l7.939.356c3.089.082 6.743.681 9.236-1.491 2.99-3.835-3.383-6.099-4.655-9.243-.893-1.881-.78-4.064-.582-6.048 3.944-35.503 15.274-70.199 14.237-106.174z" fill="#D58D32"/>
    <path d="m144.822 236.357-.708-.325c.068-.147 1.604-3.66-2.056-7.375l.554-.547c4.05 4.112 2.285 8.08 2.21 8.247zM141.13 236.737l-.763-.14c.01-.065 1.132-6.469-2.429-7.847l.281-.726c4.16 1.608 2.966 8.422 2.911 8.713zM137.084 236.563l-.763-.144c.01-.065 1.132-6.325-2.425-7.669l.277-.729c4.159 1.577 2.965 8.258 2.911 8.542zM84.026 225.777l-4.858-.612-5.374-.674.1-.77 5.633.708 4.598.575-.1.773zM154.19 226.67l-1.765.387a48.033 48.033 0 0 1 11.873-3.353l.113.77c-4.019.592-6.489.599-10.221 2.196zM65.318 235.991c-1.276-.52-2.497-1.207-3.117-2.333-.663-1.204-.807-2.661-.383-3.892.459-1.331 1.553-2.357 2.86-2.686 0 0-1.758 1.871-2.124 2.939-.356 1.026-.233 2.247.328 3.263.534.971 2.436 2.709 2.436 2.709zM67.08 236.183c-1.376-1.474-2.009-3.144-1.673-5.131.335-1.988 1.648-3.811 3.43-4.755 0 0-2.37 3.127-2.664 4.881-.298 1.759.906 5.005.906 5.005zM69.87 236.09c-1.084-1.515-1.242-3.413-.476-5.531.455-1.252 1.16-2.295 2.043-3.017 0 0-.903 2.159-1.31 3.281-.678 1.878-.257 5.267-.257 5.267zM171.372 236.159c-.027-3.031-3.558-8.432-3.558-8.432 2.645 1.926 4.307 5.155 4.334 8.425l-.776.007zM174.83 234.893c-.123-3.01-4.183-8.004-4.183-8.004 2.88 1.566 4.83 4.696 4.96 7.973l-.777.031zM176.852 232.878c-.418-2.37-3.999-6.208-3.999-6.208 2.47 1.088 4.296 3.417 4.765 6.075l-.766.133zM59.013 182.943c.048 10.936 2.644 21.958 7.919 31.56.701 1.409 1.61 2.692 2.39 4.06-7.727-9.978-11.36-23.073-10.31-35.62zM75.611 162.861c6.363 8.083 10.444 17.948 12.15 28.066.243 1.447.363 2.918.514 4.375-2.063-11.51-6.315-22.604-12.664-32.441zM164.959 161.277c-2.224 1.136-4.002 3.01-5.535 4.936-2.145 2.716-3.817 5.866-5.158 9.041-3.876 9.242-5.326 19.262-6.479 29.154.421-9.995 1.81-20.196 5.832-29.435 1.17-2.76 2.692-5.473 4.522-7.857 1.803-2.353 4.047-4.666 6.818-5.839z" fill="#D58D32"/>
    <path d="M92.513 69.98s-5.915-49.46 26.349-49.46c31.679 0 26.349 49.46 26.349 49.46H92.513z" fill="#FFC77D"/>
    <path d="M110.995 43.876c7.115-7.454-4.536-11.85 7.457-20.114 1.108-.762 1.395-1.99 1.173-3.222-.253-.007-.503-.017-.763-.017-16.977 0-23.38 13.69-25.641 26.668 6.974 1.43 12.492.896 17.774-3.315z" fill="#D58D32"/>
    <path d="M132.247 49.065c-.537 1.365-1.714 2.278-2.829 3.106.144.982.66 1.98.438 2.993-1.365 5.548-11.945 4.93-11.398-1.259h-.041c.547 6.188-10.033 6.807-11.398 1.26-.222-1.017.295-2.012.438-2.994-1.115-.831-2.292-1.741-2.829-3.106h27.619z" fill="#FFC77D"/>
    <path d="M104.632 49.065c.657 1.341 1.895 2.165 3.085 2.993l-.017.15c-.102.835-.4 1.595-.4 2.313.369 4.01 5.979 5.015 8.989 3.233 1.369-.77 2.176-2.261 2.132-3.845.325 1.625-.445 3.383-1.851 4.279-4.409 2.956-11.969-.096-9.345-6.051l.092.226c-1.101-.87-2.268-1.906-2.685-3.298z" fill="#D58D32"/>
    <path d="M132.247 49.065c-.417 1.392-1.584 2.429-2.685 3.301l.095-.23c2.624 5.96-4.939 9.008-9.345 6.052-1.406-.896-2.175-2.658-1.85-4.28-.041 1.581.762 3.076 2.131 3.842 3.006 1.786 8.62.777 8.989-3.232 0-.719-.301-1.478-.4-2.313l-.017-.15c1.187-.825 2.425-1.649 3.082-2.99z" fill="#D58D32"/>
    <path d="M110.994 45.518c1.07 2.559 4.022 4.97 7.446 5.962 3.421-.992 6.373-3.403 7.447-5.962-2.186-1.454-12.711-1.454-14.893 0z" fill="#441000"/>
    <path d="M118.438 62.023c-4.522 0-5.976-2.768-6.034-2.884l.695-.352c.051.099 1.32 2.46 5.343 2.46 4.029 0 5.377-2.368 5.432-2.467l.684.37c-.065.116-1.601 2.873-6.12 2.873zM112.749 43.312c3.893-2.1 7.378-2.812 11.21-.103-1.892-.52-3.726-1.16-5.569-1.023-1.888.12-3.739.862-5.641 1.126z" fill="#D58D32"/>
    <path d="M111.117 38.584c0 2.066-1.491 3.739-3.335 3.739-1.84 0-3.335-1.673-3.335-3.739s1.491-3.739 3.335-3.739c1.844 0 3.335 1.673 3.335 3.74z" fill="#441000"/>
    <path d="M110.908 39.846c.127-.396.209-.817.209-1.262 0-2.066-1.491-3.739-3.335-3.739-1.84 0-3.335 1.673-3.335 3.74 0 .355.058.69.14 1.015 2.285-1.478 4.536-1.067 6.321.246z" fill="#441000" opacity=".7"/>
    <path d="M108.908 37.787c.092.188.185.383.318.534.246.277.677.366.941.11.256-.25.256-.702.157-1.068-.174-.65-.951-1.881-1.69-1.645-.951.304.051 1.621.274 2.07z" fill="#fff"/>
    <path d="M131.309 38.584c0 2.066-1.491 3.739-3.335 3.739-1.84 0-3.335-1.673-3.335-3.739s1.492-3.739 3.335-3.739c1.841 0 3.335 1.673 3.335 3.74z" fill="#441000"/>
    <path d="M131.101 39.846c.126-.396.208-.817.208-1.262 0-2.066-1.491-3.739-3.335-3.739-1.84 0-3.335 1.673-3.335 3.74 0 .355.058.69.14 1.015 2.282-1.478 4.536-1.067 6.322.246z" fill="#441000" opacity=".7"/>
    <path d="M129.099 37.787c.093.188.185.383.319.534.246.277.677.366.94.11.257-.25.257-.702.158-1.068-.175-.65-.951-1.881-1.69-1.645-.955.304.048 1.621.273 2.07z" fill="#fff"/>
    <path d="M118.766 83.183a.928.928 0 0 1-.927-.927v-4.857a.928.928 0 0 1 1.854 0v4.857c0 .51-.414.927-.927.927z" fill="#8BADF3"/>
    <path d="M124.085 83.09a1.666 1.666 0 0 0-.971-3.023c-.924 0-1.67.749-1.67 1.67H116.2a1.67 1.67 0 1 0-3.338 0c0 .557.277 1.05.698 1.354a1.666 1.666 0 0 0 .971 3.024c.924 0 1.669-.75 1.669-1.67 0-.037-.01-.072-.01-.11h5.265c-.004.038-.011.073-.011.11a1.67 1.67 0 0 0 3.339 0 1.66 1.66 0 0 0-.698-1.354z" fill="#fff"/>
    <path d="M181.182 123.215c-.359-6.328-.513-12.698.305-18.985.133-1.016.469-2.237 1.461-2.487.437-.109.896.011 1.32.165 2.795.992 4.95 3.222 6.841 5.507a66.397 66.397 0 0 1 4.83 6.629c.212.332.424.677.472 1.064.065.496-.143.989-.393 1.423-.999 1.741-2.661 2.993-4.341 4.101-2.596 1.711-5.661 3.25-8.695 2.576l-1.8.007z" fill="#FF6700"/>
    <path d="M182.682 124.371c-.151-5.644-.12-11.319.769-16.895.144-.903.476-1.98 1.369-2.175.393-.086.797.034 1.173.181 2.459.958 4.324 3 5.945 5.083a58.921 58.921 0 0 1 4.125 6.031c.178.301.36.612.394.961.044.445-.154.876-.39 1.256-.937 1.525-2.449 2.596-3.972 3.537-2.356 1.457-5.124 2.746-7.809 2.062l-1.604-.041z" fill="#FFF5C7"/>
    <path opacity=".4" d="M186.639 115.371a6.05 6.05 0 0 1-2.107-4.443c1.057 1.361 1.717 2.764 2.107 4.443zM187.799 114.349a7.12 7.12 0 0 1-1.567-4.444c1.03 1.314 1.539 2.774 1.567 4.444zM189.307 113.459c-.742-.824-.978-1.799-.684-2.87.749.821.978 1.8.684 2.87z" fill="#EE9A20"/>
    <path d="M222.176 123.215c.36-6.328.513-12.698-.304-18.985-.133-1.016-.469-2.237-1.461-2.487-.438-.109-.896.011-1.32.165-2.795.992-4.95 3.222-6.841 5.507a66.24 66.24 0 0 0-4.83 6.629c-.213.332-.425.677-.472 1.064-.065.496.143.989.393 1.423.999 1.741 2.661 2.993 4.341 4.101 2.596 1.711 5.661 3.25 8.695 2.576l1.799.007z" fill="#FF6700"/>
    <path d="M220.678 124.371c.151-5.644.12-11.319-.769-16.895-.144-.903-.476-1.98-1.369-2.175-.393-.086-.797.034-1.173.181-2.459.958-4.324 3-5.945 5.083a58.921 58.921 0 0 0-4.125 6.031c-.178.301-.36.612-.394.961-.044.445.154.876.39 1.256.937 1.525 2.449 2.596 3.972 3.537 2.356 1.457 5.124 2.746 7.809 2.062l1.604-.041z" fill="#FFF5C7"/>
    <path opacity=".4" d="M216.72 115.371c.39-1.679 1.05-3.082 2.107-4.443a6.032 6.032 0 0 1-2.107 4.443zM215.564 114.349c.024-1.67.534-3.13 1.567-4.444a7.144 7.144 0 0 1-1.567 4.444zM214.052 113.459c-.291-1.067-.062-2.049.684-2.87.294 1.067.058 2.046-.684 2.87z" fill="#EE9A20"/>
    <path d="M237.699 239.709c16.036-.308 32.667-6.656 34.367-24.632.654-6.886-1.409-13.799-4.183-20.018a57.541 57.541 0 0 0-4.758-8.606c-2.343-3.493-5.46-6.547-7.259-10.382-1.898-4.043-2.087-9.133.123-12.749 2.035-3.331 5.761-4.262 9.79-4.238 9.055.051 9.065-14.018 0-14.069-10.235-.058-19.412 4.645-23.428 14.353-4.567 11.042-.739 22.139 6.338 31.049 1.345 1.694 3.407 4.724 4.868 7.358 1.796 3.247 2.466 4.714 3.472 8.189.989 3.414 1.177 4.061 1.071 7.519a19.939 19.939 0 0 1-.137 1.909c.164-1.249-.058.116-.192.588-.072.253-.66 2.128-.41 1.495.219-.558-.544 1.03-.719 1.365-.882 1.693-3.085 3.472-5.226 4.423-4.28 1.902-9.11 2.285-13.724 2.374-9.034.178-9.065 14.247.007 14.072z" fill="#EE9A20"/>
    <path d="M257.97 215.396c.061-.466.068-.569.048-.487-.017.161-.028.326-.048.487zM257.368 217.478c.068-.174.041-.136-.034.004-.041.146-.041.184.034-.004z" fill="#EE9A20"/>
    <path d="M254.474 168.022c-4.95-.674-9.646-2.511-13.07-5.924-1.731 5.935-1.16 11.832.92 17.342 4.878 1.536 10.057.866 14.767-1.183a21.087 21.087 0 0 1-1.218-2.186c-1.166-2.48-1.683-5.357-1.399-8.049zM265.783 145.018c-3.705-.02-7.269.592-10.502 1.83-.106 4.854 1.02 9.691 3.161 13.96 2.022-1.314 4.611-1.738 7.341-1.721 9.054.048 9.065-14.017 0-14.069zM253.564 197.779c.8 1.443 1.375 2.534 1.857 3.609 4.779 1.481 10.163 1.836 15.188.95-.735-2.497-1.676-4.939-2.719-7.279a57.092 57.092 0 0 0-3.288-6.283c-4.306 2.384-9.27 3.796-14.018 4.231 1.02 1.484 2.108 3.198 2.98 4.772zM258.11 210.979c.035.684.031 1.468-.003 2.504a22.78 22.78 0 0 1-.089 1.423c.021-.079.014.024-.048.486.021-.161.031-.325.048-.486-.038.133-.154.78-.239 1.074-.052.178-.356 1.153-.445 1.502.075-.144.102-.178.034-.004-.075.189-.072.151-.034.004-.168.311-.565 1.132-.684 1.361-.353.678-.92 1.365-1.605 2.008 1.67 4.437 3.558 8.784 6.113 12.595 4.7-3.096 8.312-7.484 10.002-13.46a37.346 37.346 0 0 1-13.05-9.007zM245.877 224.925c-2.699.5-5.473.664-8.179.715-9.04.175-9.071 14.244 0 14.069 3.524-.068 7.071-.427 10.488-1.135-1.686-4.211-2.37-9.014-2.309-13.649z" fill="#FF6700"/>
    <path d="M201.526 242.275c-6.999-.116-13.998-.236-20.993-.352-1.05-.017-2.128-.038-3.096-.315-1.289-.366-2.234-1.139-3.041-1.922-3.02-2.939-4.816-6.383-6.225-9.845-5.255-12.886-5.641-26.531-3.394-39.824 2.251-13.292 10.05-26.308 15.099-39.235h21.653v91.493h-.003z" fill="#EE9A20"/>
    <path d="M201.526 242.275c6.999-.116 13.997-.236 20.993-.352 1.05-.017 2.127-.038 3.095-.315 1.29-.366 2.234-1.139 3.041-1.922 3.021-2.939 4.817-6.383 6.226-9.845 5.254-12.886 5.641-26.531 3.393-39.824-2.251-13.292-10.05-26.308-15.099-39.235h-21.653v91.493h.004z" fill="#EE9A20"/>
    <path d="M225.891 134.339c-1.601-21.157-24.365-21.157-24.365-21.157s-22.765 0-24.366 21.157c-1.614 21.362-8.586 28.518-11.808 52.788l36.174-22.378 36.173 22.378c-3.222-24.27-10.19-31.422-11.808-52.788z" fill="#EE9A20"/>
    <path d="M234.665 136.692c-5.165.158-11.962-12.742-11.962-12.742l-5.877 1.475-14.993-12.243h-.308l-14.992 12.243-6.684-.616s-5.993 12.037-11.155 11.883c0 0 13.115 17.798 32.951 20.333v.01c.01 0 .021-.003.034-.003.011 0 .021.003.035.003v-.01c19.836-2.535 32.951-20.333 32.951-20.333z" fill="#EE9A20"/>
    <path d="M202.364 120.855c3.195-.534 2.743-3.985 2.64-7.355-2.097-.314-3.478-.314-3.478-.314s-1.304.003-3.305.29c.695 3.534 1.697 7.379 4.143 7.379zM210.139 121.631c3.567 2.23 5.086-.66 5.883-4.262-2.473-1.529-5.076-2.5-7.382-3.116-.745 2.853-.383 6.126 1.499 7.378zM195.369 121.631c2.582-1.549 1.388-4.478.068-7.635a30.573 30.573 0 0 0-4.881 1.57c1.067 3.548 2.938 7.317 4.813 6.065z" fill="#FF6700"/>
    <path d="M181.309 176.058c-.892 22.987 6.428 32.999 8.939 55.866.167 1.529.287 3.185-.531 4.488-1.046 1.673-3.54 2.689-3.342 4.652.202 1.984 2.87 2.432 4.861 2.336l7.635-.359c.462-.02.944-.051 1.341-.287.828-.5.913-1.642.903-2.61-.198-22.33-.393-32.219-.592-54.55l-19.214-9.536z" fill="#EE9A20"/>
    <path d="M176.757 176.057c1.761 10.444 4.597 20.634 8.059 30.636 1.922 5.634 3.578 11.398 4.645 17.264.291 1.748.695 4.139.893 5.901.154 1.317.393 2.613.383 3.999.041 1.385-.53 2.89-1.573 3.814-.845.886-2.084 1.638-2.378 2.825-.284 2.85 3.818 2.566 5.788 2.463l3.965-.178 1.98-.089c1.509.034 2.148-.393 2.22-1.919.175-13.771-1.525-27.813-1.207-41.588.078 10.6 1.306 21.102 1.744 31.685.096 2.648.144 5.292.182 7.94-.052 1.378.338 2.924-.797 4.07-.589.537-1.406.517-2.111.555l-1.981.095-3.961.192c-1.296.061-2.695.191-4.06-.171-2.702-.595-3.431-3.199-1.368-5.056 1.436-1.276 2.958-2.562 2.818-4.649-.113-3.15-.745-6.619-1.224-9.762-1.892-11.093-6.335-21.53-8.976-32.445-1.262-5.148-2.237-10.355-3.041-15.582z" fill="#7F3C00"/>
    <path d="M188.25 243.274c-.051-.11-1.228-2.761 1.454-5.484 0 0-.893 2.744-.958 3.582-.075.934.206 1.563.213 1.573l-.709.329zM190.624 243.482c-.034-.191-.825-4.703 1.967-5.78 0 0-1.269 2.668-1.314 3.879a9.202 9.202 0 0 0 .11 1.765l-.763.136zM193.241 243.373c-.034-.188-.828-4.614 1.971-5.671 0 0-1.208 2.391-1.297 3.502-.082 1.061.086 2.008.089 2.029l-.763.14z" fill="#7F3C00"/>
    <path d="M221.742 176.058c.893 22.987-6.427 32.999-8.938 55.866-.168 1.529-.288 3.185.53 4.488 1.047 1.673 3.54 2.689 3.342 4.652-.202 1.984-2.87 2.432-4.861 2.336l-7.635-.359c-.462-.02-.944-.051-1.341-.287-.827-.5-.913-1.642-.903-2.61.199-22.33.394-32.219.592-54.55l19.214-9.536z" fill="#EE9A20"/>
    <path d="M226.5 176.058c-.647 5.267-1.601 10.501-2.915 15.653-3.212 12.16-8.291 23.845-9.926 36.389-.202 1.874-.623 4.029-.602 5.87.01 1.296.482 2.398 1.464 3.263 1.566 1.344 3.783 3.352 1.761 5.418-1.693 1.423-3.995 1.143-6.023 1.057l-3.975-.191-1.988-.096c-.704-.017-1.594-.103-2.09-.729-.94-1.262-.554-2.712-.605-4.108.037-2.654.109-5.312.229-7.967.195-5.309.913-10.59 1.426-15.868.483-5.278.726-10.58.849-15.886.02 5.306-.011 10.621-.411 15.923-.438 5.292-1.019 10.553-1.19 15.862a256.668 256.668 0 0 0-.185 7.946c.048 1.163-.26 2.682.445 3.619.318.401.896.449 1.57.469l1.987.089 3.975.178c1.882.068 3.961.339 5.463-.866 1.577-1.587-.582-3.229-1.762-4.313-1.057-.903-1.7-2.384-1.679-3.78-.01-1.998.417-4.04.633-5.996.287-1.824.667-4.081 1.063-5.894 2.084-10.454 6.435-20.24 9.233-30.482 1.419-5.103 2.49-10.31 3.253-15.56z" fill="#7F3C00"/>
    <path d="m214.801 243.274-.704-.325.352.164-.352-.161c.02-.041.222-.513.229-1.231.007-.873-.978-3.924-.978-3.924 2.681 2.716 1.505 5.364 1.453 5.477zM212.427 243.482l-.762-.14c.629-3.184-1.205-5.644-1.205-5.644 2.528.729 2.002 5.593 1.967 5.784zM209.81 243.373l-.763-.144c.007-.041.226-4.224-1.481-4.802 0 0 2.709.041 2.244 4.946z" fill="#7F3C00"/>
    <path d="M175.22 188.321c-.869-2.337-2.422-4.478-4.583-5.723-2.162-1.242-4.964-1.474-7.156-.291-2.73 1.474-3.992 4.676-4.762 7.683-2.227 8.688-2.104 17.989.523 26.565 2.624 8.576 7.765 16.392 14.713 22.063 1.193.975 2.469 1.902 3.93 2.402 1.461.499 3.15.519 4.481-.26 2.227-1.304 2.754-4.263 2.822-6.845.39-14.541-6.198-28.228-9.817-42.317l-.151-3.277z" fill="#EE9A20"/>
    <path d="M168.653 235.167c-1.57.811-3.127 2.278-2.901 4.033.144 1.108.999 2.021 2.004 2.514 1.003.493 2.138.626 3.25.711 3.859.295 7.734.072 11.596-.147.503-.027 1.02-.061 1.471-.28 1.269-.619 1.433-2.497.681-3.694-1.403-2.234-5.278-3.49-7.673-4.266-2.682-.876-5.989-.13-8.428 1.129z" fill="#EE9A20"/>
    <path d="M169.727 234.671c2.938-1.96 7.214-1.899 10.016.287-3.277-1.142-6.647-1.187-10.016-.287zM168.662 236.22c-1.016 1.735-1.512 3.572-.256 5.207.157.232.345.441.506.701a5.108 5.108 0 0 1-.78-.435c-1.984-1.364-1.43-4.375.53-5.473z" fill="#7F3C00"/>
    <path d="M171.181 236.22c-1.337 1.69-1.72 3.595-.615 5.412.143.256.304.503.441.79a5.995 5.995 0 0 1-.742-.558c-1.844-1.638-1.311-4.655.916-5.644z" fill="#7F3C00"/>
    <path d="M173.5 236.22c-1.235 1.752-1.885 3.719-.647 5.542.154.256.339.492.496.776a5.708 5.708 0 0 1-.787-.53c-1.98-1.608-1.2-4.727.938-5.788z" fill="#7F3C00"/>
    <path d="M228.139 188.321c.869-2.337 2.422-4.478 4.583-5.723 2.162-1.242 4.964-1.474 7.156-.291 2.73 1.474 3.992 4.676 4.762 7.683 2.227 8.688 2.104 17.989-.523 26.565-2.624 8.576-7.765 16.392-14.713 22.063-1.193.975-2.469 1.902-3.93 2.402-1.461.499-3.15.519-4.481-.26-2.227-1.304-2.754-4.263-2.822-6.845-.39-14.541 6.198-28.228 9.817-42.317l.151-3.277z" fill="#EE9A20"/>
    <path d="M234.71 235.167c1.57.811 3.126 2.278 2.901 4.033-.144 1.108-.999 2.021-2.005 2.514-1.002.493-2.138.626-3.25.711-3.858.295-7.734.072-11.596-.147-.502-.027-1.019-.061-1.471-.28-1.269-.619-1.433-2.497-.68-3.694 1.402-2.234 5.278-3.49 7.672-4.266 2.682-.876 5.987-.13 8.429 1.129z" fill="#EE9A20"/>
    <path d="M223.62 234.955c2.921-2.053 6.978-2.135 10.183-.62 1.433.534 3.592 1.831 3.893 3.722a3.068 3.068 0 0 1-.271 1.806c.134-.588.158-1.194-.02-1.737-.585-1.666-2.353-2.569-3.92-3.12-3.092-1.338-6.742-1.361-9.865-.051z" fill="#7F3C00"/>
    <path d="M234.697 236.22c1.963 1.102 2.514 4.108.53 5.47a4.825 4.825 0 0 1-.78.434c.161-.26.352-.468.506-.701 1.255-1.632.759-3.469-.256-5.203z" fill="#7F3C00"/>
    <path d="M232.181 236.22c2.227.992 2.761 4.006.92 5.644a6.983 6.983 0 0 1-.742.558c.137-.284.298-.534.441-.79 1.098-1.817.715-3.722-.619-5.412z" fill="#7F3C00"/>
    <path d="M229.858 236.22c2.138 1.061 2.918 4.18.941 5.788a5.344 5.344 0 0 1-.787.53c.158-.284.346-.52.496-.776 1.235-1.824.585-3.79-.65-5.542z" fill="#7F3C00"/>
    <path d="m223.62 144.218-43.059-.027s-18.971 21.735-2.477 39.211c5.501 5.825 14.569 10.84 23.442 17.178v.086c.021-.014.041-.027.062-.044.02.013.041.027.061.044v-.086c8.877-6.338 17.945-11.353 23.442-17.178 16.495-17.476-1.471-39.184-1.471-39.184z" fill="#EE9A20"/>
    <path d="M206.276 197.382c7.293-4.909 14.268-9.167 18.814-13.977 4.447-4.713 6.653-9.708 7.498-14.493" fill="#EE9A20"/>
    <path d="M206.276 197.382c9.25-6.694 20.285-12.612 24.746-23.743.639-1.525 1.145-3.109 1.563-4.727-.185 1.659-.53 3.318-1.091 4.909-3.955 11.524-15.664 17.284-25.218 23.561z" fill="#7F3C00"/>
    <path d="M172.275 165.129c.1 6.123-.065 12.051 5.809 18.273 4.522 4.789 11.456 9.03 18.711 13.912" fill="#EE9A20"/>
    <path d="M172.276 165.129c.26 3.581.362 7.21 1.512 10.563 2.295 6.885 8.517 11.332 14.175 15.441 2.928 2.072 5.904 4.094 8.832 6.181-7.461-4.919-15.824-9.171-21.273-16.485-3.277-4.532-3.606-10.316-3.246-15.7zM187.576 165.854c-2.244 5.415-.366 12.246 4.382 15.649l-.479.264-.283-3.544c-.035-.332.427-.493.605-.216 2.319 3.25 6.13 5.2 8.743 8.265.896 1.043 1.635 2.275 2.025 3.629l-.663-.12a49.716 49.716 0 0 0 5.781-9.766.335.335 0 0 1 .437-.171c1.027.708 1.687 1.882 1.865 3.096l-.411-.229c5.241-2.2 9.147-7.245 10.074-12.865-.616 5.767-4.525 11.042-9.838 13.412a.297.297 0 0 1-.41-.219 4.132 4.132 0 0 0-1.611-2.623l.502-.134a50.539 50.539 0 0 1-5.78 9.951.377.377 0 0 1-.527.079c-.907-2.549-2.744-4.601-4.864-6.298-2.029-1.72-4.263-3.345-5.86-5.623l.605-.216.219 3.547c.031.253-.287.421-.479.264-4.833-3.613-6.636-10.717-4.033-16.132zM191.838 150.146c6.404 1.902 13.297 2.025 19.731.229.811-.219 1.956-.592 2.747-.855-.428.222-.859.438-1.293.647-6.616 2.986-14.59 3.051-21.185-.021z" fill="#7F3C00"/>
    <path d="M198.57 137.106c.448 1.071 1.679 2.077 3.109 2.491 1.43-.414 2.662-1.42 3.11-2.491-.91-.609-5.306-.609-6.219 0z" fill="#441000"/>
    <path d="M196.094 142.097c1.317 1.649 4.368 2.172 5.223-.099.092-.346.612-.359.729-.027.622 1.484 2.894 2.069 4.255 1.262.482-.291.848-.818.896-1.44.243 3.219-5.004 3.034-5.876.451l.732-.017c-1.02 2.791-4.841 2.309-5.959-.13zM191.828 137.462c-7.977-.01-15.324 3.335-22.655 6.068 1.731-.968 3.507-1.84 5.309-2.668 5.381-2.432 11.388-4.238 17.346-3.4zM191.687 139.162a174.506 174.506 0 0 0-18.481 7.933 47.104 47.104 0 0 1 18.481-7.933zM191.055 141.741a200.688 200.688 0 0 0-15.8 9.551 42.608 42.608 0 0 1 15.8-9.551zM211.531 137.462c5.959-.838 11.966.968 17.346 3.404 1.803.827 3.579 1.7 5.309 2.668-7.33-2.737-14.678-6.082-22.655-6.072zM211.671 139.162a47.102 47.102 0 0 1 18.482 7.933l-2.274-1.098c-5.268-2.603-10.693-4.806-16.208-6.835zM212.304 141.741a42.637 42.637 0 0 1 15.8 9.551 200.871 200.871 0 0 0-15.8-9.551zM233.632 234.671c3.996-5.124 7.047-10.864 10.002-16.632-1.963 6.185-5.189 12.195-10.002 16.632z" fill="#7F3C00"/>
    <path d="M196.108 131.401c0 1.607-1.163 2.914-2.6 2.914s-2.6-1.303-2.6-2.914c0-1.612 1.163-2.915 2.6-2.915s2.6 1.307 2.6 2.915z" fill="#441000"/>
    <path d="M195.946 132.386c.1-.308.165-.636.165-.985 0-1.608-1.163-2.915-2.6-2.915s-2.6 1.303-2.6 2.915c0 .277.045.537.11.79 1.778-1.15 3.533-.831 4.925.195z" fill="#441000" opacity=".7"/>
    <path d="M194.387 130.781c.072.148.143.298.249.418.192.215.531.284.736.085.202-.195.202-.547.123-.831-.137-.506-.742-1.464-1.317-1.283-.749.233.034 1.263.209 1.611z" fill="#fff"/>
    <path d="M211.842 131.401c0 1.607-1.163 2.914-2.6 2.914-1.436 0-2.599-1.303-2.599-2.914 0-1.612 1.163-2.915 2.599-2.915 1.437 0 2.6 1.307 2.6 2.915z" fill="#441000"/>
    <path d="M211.682 132.386c.099-.308.164-.636.164-.985 0-1.608-1.163-2.915-2.6-2.915-1.436 0-2.6 1.303-2.6 2.915 0 .277.045.537.11.79 1.775-1.15 3.533-.831 4.926.195z" fill="#441000" opacity=".7"/>
    <path d="M210.122 130.781c.071.148.143.298.249.418.192.215.531.284.736.085.202-.195.202-.547.123-.831-.137-.506-.742-1.464-1.317-1.283-.749.233.034 1.263.209 1.611zM251.522 172.442a32.18 32.18 0 0 1-3.858-6.886.18.18 0 0 1-.048-.116c0-1.126 13.423-2.039 29.982-2.039 16.56 0 29.982.913 29.982 2.039a.192.192 0 0 1-.047.116 32.327 32.327 0 0 1-3.89 6.927c9.842 7.785 16.16 19.843 16.095 33.263-.076 16.077-9.158 30.023-22.454 37.059a5.458 5.458 0 0 1-2.555.643h-34.261a5.471 5.471 0 0 1-2.559-.643c-13.354-7.067-22.453-21.102-22.453-37.265 0-13.426 6.283-25.384 16.066-33.098z" fill="#fff"/>
    <path d="M247.613 165.44c0-1.126 13.423-2.039 29.982-2.039 16.559 0 29.982.913 29.982 2.039 0 1.125-13.423 2.039-29.982 2.039-16.559 0-29.982-.914-29.982-2.039z" fill="#E8F0FF"/>
    <path d="M248.33 181.442c19.676 2.702 39.338 1.44 58.593.157 5.237 6.51 8.364 14.771 8.323 23.709-.069 14.363-8.179 26.825-20.063 33.112a4.886 4.886 0 0 1-2.285.575h-30.604a4.886 4.886 0 0 1-2.285-.575c-11.932-6.315-20.063-18.855-20.063-33.293 0-8.976 3.14-17.213 8.384-23.685z" fill="#8BADF3"/>
    <path opacity=".3" d="M306.602 188.273c-2.979.609-5.582 2.336-8.25 3.793-5.603 3.052-12.192 5.022-18.369 3.418-2.764-.719-5.295-2.111-7.905-3.264-7.273-3.208-15.66-4.559-23.22-2.114-2.384.773-4.635 1.899-6.923 2.925a37.55 37.55 0 0 1 6.396-11.589c19.676 2.702 39.338 1.44 58.593.157a37.901 37.901 0 0 1 4.307 6.681 11.71 11.71 0 0 0-4.629-.007zM242.358 209.088c3.974-1.112 7.614-3.171 11.51-4.529s8.34-1.971 12.058-.178c3.756 1.809 6.291 5.836 10.317 6.917 2.979.8 6.147-.209 8.911-1.584 2.764-1.375 5.374-3.127 8.346-3.958 2.583-.722 5.312-.708 7.991-.551 4.662.274 9.612 1.157 13.594 3.418a37.378 37.378 0 0 1-4.67 14.962c-2.842-1.352-6.194-1.83-9.386-1.861-2.928-.028-5.894.249-8.661 1.211-3.192 1.108-6 3.071-8.976 4.662-5.565 2.973-12.171 4.656-18.225 2.877-2.969-.872-5.655-2.525-8.583-3.523-3.253-1.109-6.773-1.307-10.152-.702a37.443 37.443 0 0 1-6.223-16.669c.722-.13 1.441-.294 2.149-.492z" fill="#8BADF3"/>
    <path d="M290.08 228.77c4.553.715 9.188 1.728 13.234 3.845a37.744 37.744 0 0 1-8.134 5.805 4.888 4.888 0 0 1-2.285.574H262.29c-.797 0-1.58-.201-2.285-.574a37.777 37.777 0 0 1-7.895-5.586c4.789-2.521 10.108-4.067 15.493-4.779 7.457-.988 15.047-.455 22.477.715z" fill="#FFC77D"/>
    <path d="M277.502 184.312c16.156 0 29.254-1.264 29.254-2.822 0-1.559-13.098-2.822-29.254-2.822s-29.253 1.263-29.253 2.822c0 1.558 13.097 2.822 29.253 2.822z" fill="#8BADF3"/>
    <path d="M277.502 184.312c16.156 0 29.254-1.264 29.254-2.822 0-1.559-13.098-2.822-29.254-2.822s-29.253 1.263-29.253 2.822c0 1.558 13.097 2.822 29.253 2.822z" fill="#8BADF3"/>
    <path d="M288.725 200.868c-.485-2.35-2.326-4.481-4.686-4.905-1.033-.185-2.097-.055-3.123.164-.506.106-1.019.236-1.536.198-.547-.041-1.064-.267-1.594-.41a5.455 5.455 0 0 0-4.905 1.122c1.105-.004 2.275.154 3.15.827.216.168.414.37.53.62.295.639-.02 1.419.209 2.083.171.496.609.841 1.026 1.156.171.13.353.267.568.294.13.017.264-.007.39-.034.623-.14 1.211-.397 1.834-.541.622-.14 1.306-.157 1.857.165l6.28-.739z" fill="#FFB500"/>
    <path d="M274.451 197.242c.034-.065.872-1.584 3.633-.308 1.734.807 2.764.462 3.67.164.722-.239 1.403-.462 2.412-.13 2.192.725 1.741 2.911 1.72 3.004l.431.092c.007-.027.554-2.672-2.014-3.516-1.15-.38-1.933-.12-2.689.13-.91.301-1.769.584-3.346-.144-3.147-1.464-4.2.489-4.21.51l.393.198z" fill="#FFB500"/>
    <path d="m275.816 197.82.431.092c0-.003.031-.096.171-.154.198-.085.698-.137 1.854.459 1.389.718 2.278.349 3.061.02.486-.202.904-.376 1.406-.297 1.211.195.938 2.062.934 2.083l.438.068c.123-.804.014-2.374-1.3-2.586-.626-.099-1.146.116-1.645.325-.763.318-1.481.619-2.689-.007-1.023-.53-1.782-.684-2.261-.458a.696.696 0 0 0-.4.455z" fill="#FFB500"/>
    <path d="M276.732 199.366c.301-.051.859-.147 1.283-.007.055.017.11.041.164.062.106.041.216.085.339.113.387.082.742-.045 1.084-.165.254-.088.493-.174.729-.167.561.014 1.016.53 1.396 1.012l.345-.273c-.445-.565-.982-1.167-1.734-1.184-.315-.007-.602.096-.883.192-.297.106-.581.205-.848.147a1.768 1.768 0 0 1-.263-.089l-.189-.072c-.468-.157-.995-.099-1.498-.01l.075.441zM255.394 189.846c.267-.376.671-.8 1.109-.656-.281.506-.568 1.057-.486 1.631.147 1.023 1.341 1.499 2.363 1.666 1.341.219 2.744.264 3.965.855 2.227 1.074 3.301 3.749 3.239 6.219-.02.866-.154 1.741.035 2.583.249 1.115 1.06 2.062 2.066 2.606 1.005.544 2.185.715 3.325.626l-1.242 2.374a5.478 5.478 0 0 1-.407.428c.277.01.554.024.824.041-.273.017-.598.15-.92.342-1.242.735-2.015 2.052-2.141 3.489-.123 1.396.116 2.843-.106 4.324-.411 7.806-8.586 3.485-8.617 9.892-3.065-5.449 3.181-7.111 1.314-10.05-.531-.455-1.187-.872-.982-1.672.308-2.586 1.683-4.187 3.533-5.142a10.206 10.206 0 0 1-1.874-.851c-.831-.479-1.632-1.105-2.018-1.984-.531-1.204-.168-2.593.126-3.876.298-1.283.489-2.75-.291-3.811-.944-1.286-2.907-1.412-3.954-2.616-.773-.89-.872-2.21-.551-3.342.322-1.129 1.009-2.114 1.69-3.076z" fill="#FFB500"/>
    <mask id="l4rpj5d5xc" style="mask-type:luminance" maskUnits="userSpaceOnUse" x="253" y="189" width="19" height="38">
        <path d="M255.394 189.846c.267-.376.671-.8 1.109-.656-.281.506-.568 1.057-.486 1.631.147 1.023 1.341 1.499 2.363 1.666 1.341.219 2.744.264 3.965.855 2.227 1.074 3.301 3.749 3.239 6.219-.02.866-.154 1.741.035 2.583.249 1.115 1.06 2.062 2.066 2.606 1.005.544 2.185.715 3.325.626l-1.242 2.374a5.478 5.478 0 0 1-.407.428c.277.01.554.024.824.041-.273.017-.598.15-.92.342-1.242.735-2.015 2.052-2.141 3.489-.123 1.396.116 2.843-.106 4.324-.411 7.806-8.586 3.485-8.617 9.892-3.065-5.449 3.181-7.111 1.314-10.05-.531-.455-1.187-.872-.982-1.672.308-2.586 1.683-4.187 3.533-5.142a10.206 10.206 0 0 1-1.874-.851c-.831-.479-1.632-1.105-2.018-1.984-.531-1.204-.168-2.593.126-3.876.298-1.283.489-2.75-.291-3.811-.944-1.286-2.907-1.412-3.954-2.616-.773-.89-.872-2.21-.551-3.342.322-1.129 1.009-2.114 1.69-3.076z" fill="#fff"/>
    </mask>
    <g mask="url(#l4rpj5d5xc)" fill="#FFB500">
        <path d="m258.476 226.195.373-.236c-.12-.189-.11-.466.027-.849a4.884 4.884 0 0 1 1.533-2.148c.397-.315.852-.578 1.296-.831.636-.366 1.297-.742 1.813-1.297 1.252-1.341 1.344-3.246 1.437-5.09l.031-.585c.095-1.672.349-2.89.814-3.94.581-1.314 1.556-2.33 2.668-2.795l-.168-.407c-1.235.513-2.264 1.587-2.9 3.021-.49 1.101-.753 2.363-.852 4.094l-.031.588c-.089 1.766-.178 3.589-1.32 4.81-.472.506-1.074.852-1.711 1.214-.458.264-.93.534-1.351.869a5.268 5.268 0 0 0-1.673 2.343c-.188.527-.184.931.014 1.239z"/>
        <path d="m257.142 225.247.441.044c.212-2.168 1.622-3.916 2.771-5.001.123-.116.246-.229.373-.342.626-.571 1.272-1.163 1.628-1.96.414-.927.356-1.946.298-2.935a12.477 12.477 0 0 1-.031-1.392c.079-1.58.814-3.171 2.018-4.361 1.115-1.109 2.658-1.899 4.341-2.231l-.085-.434c-1.769.349-3.39 1.184-4.567 2.35-1.279 1.269-2.063 2.966-2.148 4.652-.024.479.003.968.031 1.44.058.975.112 1.895-.26 2.726-.319.715-.931 1.273-1.523 1.817-.126.116-.253.232-.376.349-1.204 1.135-2.685 2.972-2.911 5.278zM261.831 207.124a5.606 5.606 0 0 0 1.676.404c1.646.137 3.274-.356 4.783-.907l-.151-.414c-1.464.534-3.034 1.013-4.594.883-1.686-.14-3.126-1.057-3.67-2.336-.332-.777-.342-1.629-.353-2.528-.01-.801-.02-1.632-.273-2.412-.637-1.946-2.877-3.308-5.21-3.171l.024.442c2.141-.127 4.19 1.108 4.765 2.866.233.718.243 1.512.253 2.282.01.903.021 1.84.387 2.695.414.965 1.276 1.745 2.363 2.196z"/>
        <path d="M264.364 204.908c1.166.482 2.582.711 4.282.694l-.003-.441c-2.367.02-4.146-.442-5.439-1.413a5.545 5.545 0 0 1-2.015-3.007c-.119-.455-.184-.947-.246-1.419-.116-.89-.239-1.81-.725-2.6-.797-1.296-2.271-1.837-3.701-2.357-.216-.079-.428-.154-.637-.236-.516-.195-1.053-.431-1.447-.814-.485-.472-.786-1.197-.848-2.049-.055-.787.086-1.587.223-2.36l-.435-.079c-.14.8-.287 1.625-.229 2.466.068.962.414 1.789.978 2.337.452.437 1.033.697 1.598.91l.643.236c1.358.492 2.76 1.005 3.475 2.172.438.711.547 1.542.664 2.425.065.486.13.992.256 1.474a5.96 5.96 0 0 0 2.176 3.246c.431.329.906.596 1.43.815z"/>
        <path d="M266.72 204.839c.315.13.643.236.979.318l.102-.427a6.225 6.225 0 0 1-2.918-1.642c-.783-.787-1.258-1.728-1.34-2.644-.042-.469.01-.934.068-1.43.044-.37.085-.753.085-1.136a5.085 5.085 0 0 0-1.799-3.855c-.571-.479-1.238-.821-1.885-1.149-.331-.171-.677-.346-.998-.537-.192-.113-.408-.25-.527-.442-.205-.325-.13-.745-.052-1.193.048-.274.1-.558.093-.842l-.441.014c.006.236-.038.486-.086.749-.092.51-.185 1.036.113 1.508.171.274.441.445.677.585.335.199.684.377 1.026.551.65.332 1.266.647 1.8 1.095a4.635 4.635 0 0 1 1.642 3.516c0 .359-.041.729-.086 1.085-.058.492-.116 1.005-.068 1.518.092 1.02.612 2.056 1.467 2.915a6.566 6.566 0 0 0 2.148 1.443z"/>
    </g>
    <path d="M266.618 205.318c.492-1.057 1.577-.643 2.169-.311.393.219.834.339 1.276.325 2.096-.267 3.608-1.762 4.402-2.764.852-1.081 1.857-2.039 3.024-2.771 8.237-5.168 14.466 3.253 14.466 3.253 1.221-.314.951 1.269.951 1.269 1.074 1.102-.578 1.55-.578 1.55-.616 3.705-3.643 6.828-7.273 7.792-3.629.965-7.683-.154-10.477-2.664-.784-.705-1.485-1.516-2.378-2.073-.779-.486-1.771-.753-2.633-.49-.011.007-1.848 1.17-2.361.226-.513-.951.849-1.738.849-1.738s-1.83-.759-1.437-1.604z" fill="#FF6700"/>
    <g opacity=".3" fill="#FF6700">
        <path d="M283.703 210.812c-.591-.076-1.228-.178-1.652-.599-.417-.414-.533-1.067-.404-1.642.13-.575.473-1.077.863-1.519-.733-.386-1.608-.509-2.251-1.033a2.272 2.272 0 0 1-.825-1.813c.024-.687.39-1.354.955-1.751a3.141 3.141 0 0 1-2.121-1.515 3.092 3.092 0 0 1-.39-1.379c3.174-1.844 6.037-1.69 8.34-.828a2.796 2.796 0 0 0-.411 1.851c.154 1.074 1.002 2.011 2.052 2.275a2.521 2.521 0 0 0-.721 2.367 2.523 2.523 0 0 0 1.69 1.806c-.322.619-.575 1.358-.298 1.998.215.492.715.817 1.238.95.216.055.438.083.66.096-1.347 1.717-3.26 3.014-5.374 3.578-.246.065-.495.12-.745.168a2.28 2.28 0 0 1-.76-.814 2.11 2.11 0 0 1 .154-2.196zM271.67 206.652c-.657 0-1.355-.403-1.488-1.047a1.123 1.123 0 0 1-.024-.29c1.358-.199 2.466-.91 3.283-1.653.048.319.158.623.356.88.455.595 1.242.814 1.974.968-.267.506-.534 1.019-.64 1.58-.106.561-.024 1.187.349 1.618.411.482 1.091.636 1.724.657-.366.633-.698 1.293-.848 2.008-.062.29-.089.588-.079.886a11.66 11.66 0 0 1-1.703-1.266c-.784-.705-1.485-1.515-2.378-2.073a3.976 3.976 0 0 0-1.347-.534c.017-.147.051-.294.092-.434.147-.479.397-.927.729-1.3z"/>
    </g>
    <path d="M287.638 209.259c-1.242-.914-1.991-2.121-2.262-3.636-.42 1.518.715 3.342 2.262 3.636z" fill="#FF6700"/>
    <path d="M285.068 208.862c.082 1.255.134 2.524-.12 3.759-.249 1.232-.831 2.436-1.812 3.219-.927.736-2.179 1.084-2.877 2.039-.366.499-.537 1.112-.842 1.652a3.824 3.824 0 0 1-2.805 1.888c.66-.52.996-1.419.835-2.244-.062-.321-.192-.626-.229-.951a1.76 1.76 0 0 1 .434-1.365c.257-.283.619-.496.753-.855.178-.482-.127-.995-.26-1.491-.236-.876.109-1.878.838-2.419.811-.602 3.328-.222 5.138-1.97.256-.25.475-.533.67-.831l.277-.431z" fill="#FFB500"/>
    <path d="M284.89 210.295c-.195.907-.718 1.673-1.358 2.285-.954.978-2.377 1.409-3.324 2.449-.654.726-.811 1.697-1.112 2.573-.137.414-.342.872-.807.988.236 0 .461-.133.619-.311.735-.872.807-2.158 1.611-2.966.616-.653 1.457-1.04 2.199-1.56 1.133-.79 2.145-2.031 2.172-3.458z" fill="#FFB500"/>
    <path d="M284.443 210.453a5.016 5.016 0 0 1-2.979 1.847c-.582.147-1.252.318-1.738.804-.39.321-.39.865-.64 1.252-.089.106-.215.201-.373.198.151.055.332-.01.455-.113.346-.301.418-.835.791-1.081.441-.352 1.015-.489 1.614-.629 1.225-.253 2.408-1.098 2.87-2.278z" fill="#FFB500"/>
    <path d="M280.686 205.958c.213.089.442.137.674.14 0 0-1.016-.763-1.221-1.228-.099-.226-.202-.67.202-1.115l.243-.27-.352-.093c-.62-.164-1.003-.424-1.105-.756-.12-.386.089-1.423.089-1.423-.486.568-.657 1.091-.513 1.557.129.414.506.739 1.108.954a1.408 1.408 0 0 0-.079 1.32c.188.414.537.743.954.914zM279.133 208.557c.212.089.442.137.674.141 0 0-1.016-.763-1.221-1.228-.099-.226-.202-.671.202-1.116l.243-.27-.353-.092c-.622-.164-1.002-.424-1.105-.756-.119-.387.089-1.423.089-1.423-.485.568-.656 1.088-.513 1.553.13.414.507.742 1.109.954a1.41 1.41 0 0 0-.079 1.321c.185.417.537.742.954.916z" fill="#FF6700"/>
    <path d="M287.839 203.156c.127.643.695 1.071 1.269.955.572-.113.934-.729.804-1.369-.126-.643-.694-1.07-1.269-.954-.571.113-.934.728-.804 1.368z" fill="#441000"/>
    <path d="M287.983 203.536a1.317 1.317 0 0 1-.144-.38c-.126-.643.233-1.255.804-1.368.571-.113 1.139.315 1.269.954.021.11.024.219.021.325-.801-.314-1.478-.048-1.95.469z" fill="#441000"/>
    <path d="M288.476 202.773c-.017.065-.034.13-.065.185-.058.102-.188.154-.287.092-.096-.061-.123-.202-.117-.321.014-.212.178-.643.425-.616.318.034.088.506.044.66z" fill="#fff"/>
    <path d="M292.939 204.227c-.961.643-2.011 1.108-3.12.551.715 1.187 2.682.609 3.12-.551z" fill="#441000"/>
    <path d="M281.679 200.461c-.219-.045-.466-.13-.537-.342a.463.463 0 0 1 .027-.325c.181-.448.725-.616 1.204-.681a7.07 7.07 0 0 1 1.96.017c.592.089 1.454.212 1.888.667.39.407.11.77-.342.931-.585.208-1.187.03-1.782-.024-.807-.072-1.621-.079-2.418-.243z" fill="#fff" opacity=".3"/>
    <g opacity=".6" fill="#fff">
        <path d="M284.812 191.389a.986.986 0 1 0 1.972-.002.986.986 0 0 0-1.972.002zM287.494 187.301a1.642 1.642 0 1 0 3.284 0 1.642 1.642 0 0 0-3.284 0z"/>
    </g>
    <path d="M288.493 187.12c-.079.089-.178.175-.294.178-.158.007-.294-.14-.318-.294-.024-.158.037-.315.119-.452.127-.208.661-.78.903-.441.209.284-.246.828-.41 1.009zM285.37 191.229c-.037.045-.089.086-.147.089-.079.003-.147-.068-.157-.147-.014-.079.02-.158.058-.226.061-.106.332-.391.452-.219.103.14-.123.411-.206.503z" fill="#fff"/>
</svg>
