<svg width="246" height="246" viewBox="0 0 246 246" fill="none" xmlns="http://www.w3.org/2000/svg">
    <path d="M183.962 184.428c33.867-33.867 33.867-88.775 0-122.642-33.866-33.866-88.775-33.866-122.641 0-33.867 33.867-33.867 88.775 0 122.642 33.866 33.866 88.775 33.866 122.641 0z" fill="#FFE8C7"/>
    <path d="m67.06 175.765 8.262 32.893" stroke="#000" stroke-width=".77" stroke-miterlimit="10"/>
    <path d="m106.328 111.189-26.54 4.027s-2.641.97-13.09.423c-10.448-.547-19.187 5.19-22.267 14.129-1.155 3.334-3.41 9.047-5.767 15.029a86.466 86.466 0 0 0 14.914 30.729 70.76 70.76 0 0 0 8.562.385s1.54 5.744 3.272 12.32a86.369 86.369 0 0 0 55.923 21.559 114.742 114.742 0 0 0 19.595-8.47l-3.08-34.094s8.724-2.602 16.423-11.333c1.687-1.902-16.939-33.732-22.328-40.254-5.39-6.522-25.617-4.45-25.617-4.45z" fill="#7E7B44"/>
    <path d="M117.952 164.594c6.139-8.6 4.144-20.55-4.457-26.689-8.601-6.139-20.55-4.144-26.69 4.457-6.139 8.6-4.143 20.55 4.457 26.689 8.601 6.139 20.55 4.144 26.69-4.457z" fill="#EFD79A"/>
    <path d="m96.55 146.006 1.132 6.799M105.458 144.513l1.14 6.806M114.152 150.064a12.183 12.183 0 0 1-19.022 11.729 12.18 12.18 0 0 1-5.001-7.718" stroke="#7E7B44" stroke-width=".77" stroke-linecap="round" stroke-linejoin="round"/>
    <path d="M76.762 115.678s12.265 12.257 23.53 9.278c9.717-2.564 7.776-13.906 7.776-13.906" stroke="#514D27" stroke-width=".577" stroke-linecap="round" stroke-linejoin="round"/>
    <path d="M74.067 92.663s4.997 7.153 5.721 22.553c0 0 10.857 8.469 18.48 7.314 7.622-1.155 8.03-11.357 8.03-11.357a37.914 37.914 0 0 1-6.645-17.84l-25.586-.67z" fill="#FFB48C"/>
    <path d="M93.216 102.334c3.727-.585 6.044-1.917 7.492-3.35a36.676 36.676 0 0 1-1.024-5.635l-25.617-.686a23.876 23.876 0 0 1 2.249 4.62c4.25 2.687 10.895 5.991 16.9 5.051z" fill="#EF8D6F"/>
    <path d="M56.882 81.453S45.625 56.868 43.36 51.593c-2.264-5.273 5.243-8.546 5.243-8.546s-2.386-6.93 6.507-15.591c8.893-8.662 26.794-4.62 33.916-12.127 0 0-.577 6.16-3.272 9.624 0 0 14.244-7.892 28.488 2.695 0 0 0 9.24-3.657 15.977 0 0 3.657-2.888 5.582-10.78 0 0 5.39 19.565-7.699 28.358l-51.587 20.25z" fill="#D86224"/>
    <path d="M82.714 24.953s12.666-11.164 31.722 0" stroke="#D86224" stroke-width=".385" stroke-linecap="round" stroke-linejoin="round"/>
    <path d="M114.243 27.648s-5.005 7.7-19.249 8.085" stroke="#FF8326" stroke-width=".385" stroke-linecap="round" stroke-linejoin="round"/>
    <path d="M90.583 31.69a36.79 36.79 0 0 0 18.202.57" stroke="#FF8326" stroke-width=".385" stroke-linecap="round" stroke-linejoin="round"/>
    <path d="M77.185 31.29c18.302-4.99 27.596 5.19 32.339 21.82 4.743 16.632 4.666 35.627-8.632 39.87-13.297 4.242-32.184 3.533-40.269-13.429C52.54 62.59 49.913 38.712 77.185 31.29z" fill="#FFB48C"/>
    <path d="M100.416 48.075a25.561 25.561 0 0 1-8.154-2.649c2.31-3.064 8.154-1.216 8.154 2.65zM82.714 46.797c-1.302 1.355-2.688 2.664-3.85 4.127-1.37 1.286-2.218 3.08-3.519 4.443a6.197 6.197 0 0 1 1.017-6.252c1.37-1.748 4.103-3.196 6.352-2.318z" fill="#D86224"/>
    <path d="M99.044 79.913s-8.962 4.504-16.022-1.886" stroke="#EF8D6F" stroke-width=".577" stroke-linecap="round" stroke-linejoin="round"/>
    <path d="M96.812 59.779c.316 1.316 1.24 2.225 2.056 2.024.816-.2 1.224-1.416.908-2.733-.316-1.316-1.232-2.225-2.056-2.025-.823.2-1.224 1.455-.908 2.733zM79.896 63.967c.316 1.317 1.24 2.218 2.056 2.025.816-.192 1.224-1.424.908-2.741-.316-1.317-1.232-2.218-2.056-2.025-.823.193-1.224 1.425-.908 2.741z" fill="#3A130E"/>
    <path d="M73.463 82.114c5.469-.829 9.35-5.142 8.67-9.634-.681-4.492-5.666-7.461-11.135-6.633-5.468.829-9.35 5.142-8.669 9.634.68 4.492 5.666 7.462 11.134 6.633zM109.054 57.037c.48-.07.963-.112 1.448-.123a64.332 64.332 0 0 1 1.848 16.17c-.293.061-.585.123-.886.161-5.459.816-10.432-2.171-11.095-6.652-.662-4.482 3.226-8.747 8.685-9.556z" fill="#F27F52"/>
    <path d="M90.583 51.594s.216 7.946 4.62 14.583c0 0 7.053-1.602 7.792-.331.739 1.27-3.85 9.24-3.85 9.24" fill="#FFB48C"/>
    <path d="M90.583 51.594s.216 7.946 4.62 14.583c0 0 7.053-1.602 7.792-.331.739 1.27-3.85 9.24-3.85 9.24" stroke="#EF8D6F" stroke-width=".577" stroke-linecap="round" stroke-linejoin="round"/>
    <path d="M63.426 46.62c10.395.177 22.714-12.235 22.329-21.667 2.695-3.465 3.272-9.624 3.272-9.624-7.122 7.507-25.031 3.465-33.878 12.127-8.847 8.662-6.545 15.591-6.545 15.591s-7.507 3.273-5.243 8.547c1.463 3.403 6.675 14.86 10.187 22.552 17.308-6.53 9.878-27.526 9.878-27.526z" fill="#FF8326"/>
    <path d="M48.374 39.567s3.442-8.708 16.17-9.54c12.727-.831 17.354-1.994 21.204-5.074" stroke="#D86224" stroke-width=".385" stroke-linecap="round" stroke-linejoin="round"/>
    <path d="M89.027 15.329A30.845 30.845 0 0 1 68.046 29.75M43.215 48.075S48.95 59.31 64.85 59.455" stroke="#D86224" stroke-width=".385" stroke-linecap="round" stroke-linejoin="round"/>
    <path d="m64.543 85.703-6.93-13.505s-6.221-8.47-12.92-3.319c-5.898 4.566 8.778 24.64 19.85 16.824z" fill="#FFB48C"/>
    <path d="M57.344 71.82c.192.232.3.378.3.378l6.93 13.505c-6.93 4.89-15.276-1.14-19.096-7.46 2.518-5.56 7.816-6.576 11.866-6.422z" fill="#EF8D6F"/>
    <path d="M118.354 111.05s14.868 25.409 19.488 56.207c0 0 8.724-2.602 16.423-11.334 1.687-1.901-16.939-33.732-22.328-40.253-2.503-3.049-8.2-4.227-13.583-4.62z" fill="#969269"/>
    <path d="M137.234 163.569s8.016-2.826 16.377-10.779" stroke="#514D27" stroke-width=".577" stroke-linecap="round" stroke-linejoin="round"/>
    <path d="m131.075 46.72 15.538 23.946-28.743 12.843-7.469-11.473 20.674-25.316zM174.439 46.72l-15.545 23.946 28.742 12.843 7.469-11.473-20.666-25.316z" fill="#371315"/>
    <path d="M200.163 161.991c-5.744-26.78-14.698-44.412-14.698-44.412s6.721-4.558 8.269-8.246c1.548-3.688-2.61-24.746-8.269-31.252-5.66-6.507-21.359-7.63-32.708-7.63-11.35 0-27.057 1.123-32.716 7.63-5.659 6.506-9.817 27.564-8.262 31.252 1.556 3.688 8.262 8.246 8.262 8.246s-19.896 39.161-19.38 89.431a86.846 86.846 0 0 0 99.502-45.019z" fill="#D0915E"/>
    <path d="M170.027 102.958c10.379 5.39 18.726 3.588 23.923 1.085-.732-7.753-4.158-21.035-8.47-25.963-4.874-5.605-17.193-7.214-27.772-7.553-.993 7.615-1.54 25.193 12.319 32.431zM100.662 206.564c0 .354-.1.423.285.515.269.077.546.147.816.208.554.139 1.101.27 1.655.393 1.207.277 2.415.534 3.627.77 2.356.431 4.735.77 7.122.993 4.898.479 9.829.538 14.737.177a76.7 76.7 0 0 0 3.534-.331c.454-.046 1.301 0 1.602-.346.3-.347.669-.824 1.001-1.24a49.503 49.503 0 0 0 3.31-4.851 45.577 45.577 0 0 0 4.851-11.264 36.903 36.903 0 0 0-2.033-25.586 41.013 41.013 0 0 0-13.243-15.884 47.353 47.353 0 0 0-13.859-6.776c-.855-.262-1.709-.5-2.58-.708l-1.024-.239c-.361 1.17-.723 2.349-1.062 3.534a217.071 217.071 0 0 0-3.665 14.206 205.482 205.482 0 0 0-5.105 46.459l.031-.03zM200.056 161.652a218.968 218.968 0 0 0-10.31-34.194c-3.85 3.234-5.852 8.046-6.437 12.943-.924 7.746.916 16.477 5.49 22.875a22.798 22.798 0 0 0 5.597 5.544c.247.17.501.331.77.493.27.162.524.5.77.115.524-.823 1.032-1.663 1.54-2.51.508-.847.978-1.701 1.448-2.564.362-.708 1.332-1.909 1.132-2.702zM110.401 72.036c-1.032-2.571 17.825-25.97 20.674-25.316 2.848.654 7.645 30.598 5.613 33.532-2.033 2.933-23.207-.5-26.287-8.216z" fill="#AD7041"/>
    <path d="M195.105 72.036c1.032-2.571-17.817-25.97-20.666-25.316-2.849.654-7.653 30.598-5.621 33.532 2.033 2.933 23.207-.5 26.287-8.216z" fill="#D0915E"/>
    <path d="M138.69 156.077s-4.15 16.454 4.804 25.17c0 0-1.747-5.697 0-9.316 0 0 0 10.864 15.692 13.628 0 0 2.502-6.637 2.195-12.92 0 0 1.832 4.62 1.493 7.7 0 0 6.437-2.61 7.115-12.859" stroke="#EDC8B9" stroke-width=".577" stroke-linejoin="round" style="mix-blend-mode:multiply"/>
    <path d="M133.685 98.97c1.684 0 3.049-1.659 3.049-3.704 0-2.046-1.365-3.704-3.049-3.704s-3.049 1.659-3.049 3.704 1.365 3.703 3.049 3.703z" fill="#3A130E"/>
    <path d="M133.685 98.97c1.686 0 3.08-1.664 3.08-3.704a4.39 4.39 0 0 0-.355-1.733l-5.582 2.942a3.165 3.165 0 0 0 2.857 2.495z" fill="#231012"/>
    <path d="M133.161 94.889c0 .77-.292 1.362-.654 1.362-.362 0-.654-.608-.654-1.362 0-.755.292-1.355.654-1.355.362 0 .654.608.654 1.355z" fill="#EFF6FE"/>
    <path d="M174.877 95.266c0 2.04-1.37 3.703-3.079 3.703-1.71 0-3.08-1.663-3.08-3.703s1.363-3.704 3.08-3.704 3.079 1.656 3.079 3.704z" fill="#3A130E"/>
    <path d="M171.821 98.97c1.687 0 3.08-1.664 3.08-3.704a4.372 4.372 0 0 0-.354-1.733l-5.582 2.942a3.165 3.165 0 0 0 2.856 2.495z" fill="#231012"/>
    <path d="M171.298 94.889c0 .77-.292 1.362-.654 1.362-.362 0-.655-.608-.655-1.362 0-.755.293-1.355.655-1.355.362 0 .654.608.654 1.355z" fill="#EFF6FE"/>
    <path d="M152.757 102.958a6.118 6.118 0 0 1-4.813 5.636v7.453a4.812 4.812 0 0 0 9.625 0v-7.453a6.1 6.1 0 0 1-4.812-5.636z" fill="#F49A8E"/>
    <path d="M152.757 102.95v11.48" stroke="#E27169" stroke-width=".77" stroke-linecap="round" stroke-linejoin="round"/>
    <path d="M152.756 92.486c-5.028 0-12.789 1.125-12.596 3.927.192 2.803 6.929 5.983 12.596 6.545 5.621-.562 12.412-3.742 12.597-6.545.185-2.802-7.569-3.927-12.597-3.927z" fill="#231012"/>
    <path d="M166.816 103.766s-.408 5.051-7.16 5.051c-6.753 0-6.93-5.859-6.93-5.859s-.146 5.859-6.93 5.859c-6.783 0-7.16-5.051-7.16-5.051" stroke="#231012" stroke-width=".77" stroke-linecap="round" stroke-linejoin="round"/>
    <path d="M185.688 118.026c-3.711 1.717-17.917 7.8-32.931 7.8-15.014 0-29.258-6.083-32.939-7.8-.277.577-.77 1.694-1.54 3.311 2.61 3.334 13.09 14.629 34.464 14.629s31.845-11.326 34.463-14.629c-.701-1.617-1.24-2.734-1.517-3.311z" fill="#EFD79A"/>
    <path d="M161.138 148.71a8.624 8.624 0 1 0-16.786-3.962 8.624 8.624 0 0 0 16.786 3.962z" fill="#F89D4A"/>
    <path d="m140.8 149.556 22.075-15.292" stroke="#EFD79A" stroke-width="2.31" stroke-miterlimit="10"/>
    <path d="m141.762 153.852 22.074-15.284" stroke="#EFD79A" stroke-width="3.85" stroke-miterlimit="10"/>
    <path d="M159.002 148.206a6.429 6.429 0 1 0-12.513-2.954 6.429 6.429 0 0 0 12.513 2.954z" fill="#B2552D"/>
    <path d="M159.186 146.738a6.431 6.431 0 0 0-7.683-6.306 6.43 6.43 0 0 0-2.318 11.651 6.429 6.429 0 0 0 3.572 1.084 6.407 6.407 0 0 0 6.429-6.429z" fill="#D46327"/>
    <path d="M152.757 130.707v8.462" stroke="#fff" stroke-width="1.54" stroke-linecap="round" stroke-linejoin="round"/>
    <path d="M152.526 179.892c-.1-.932-12.512.416-11.026-.061 1.486-.478 16.308-5.683 14.999-6.345-1.309-.662-18.656 1.879-16.108.916 2.549-.962 19.188-7.792 17.964-9.031-1.225-1.24-20.143 6.159-18.741 5.004 1.401-1.154 17.216-10.925 16.238-11.834-.978-.908-9.293 3.303-11.357 4.528-2.063 1.224-16.277 6.683-17.131 6.044-.855-.639.223-2.21 2.371-5.236s2.233-6.16 1.679-7.792c-.77-2.233-2.695-.77-5.844 4.62-1.933 3.341-5.29 6.159-9.24 9.509-3.08 2.602-3.85 8.408-4.034 10.825-13.367 1.694-38.06 4.366-42.61 3.442-2.194-.446-2.91-22.506-2.418-34.648.724-17.755-1.262-24.531-12.904-21.482-8.8 2.31-13.598 11.442-10.733 45.743 1.847 22.114 9.924 36.396 16.261 37.99 5.066 1.278 39.383-11.11 57.585-18.433 3.134-.77 10.872-4.134 17.486-6.621 6.614-2.487 17.725-5.752 17.563-7.138z" fill="#FFB48C"/>
    <path d="M69.832 174.649c.709-1.194 3.18-51.441-15.4-56.431a20.49 20.49 0 0 0-10.009 11.55c-3.08 8.931-14.12 34.925-13.605 37.458.516 2.533 13.344 8.947 31.314 8.685 3.589.016 6.93.016 7.7-1.262z" fill="#969269"/>
    <path d="M31.05 165.594s13.174 8.139 39.044 7.014" stroke="#514D27" stroke-width=".577" stroke-linecap="round" stroke-linejoin="round"/>
</svg>
